<svg width="32" height="32" viewBox="0 0 40 40" fill="none" xmlns="http://www.w3.org/2000/svg">
  <!-- Outer petals — charcoal -->
  <ellipse cx="20" cy="7" rx="3" ry="7" fill="#23292E" transform="rotate(0 20 20)" />
  <ellipse cx="20" cy="7" rx="3" ry="7" fill="#23292E" transform="rotate(90 20 20)" />
  <ellipse cx="20" cy="7" rx="3" ry="7" fill="#23292E" transform="rotate(180 20 20)" />
  <ellipse cx="20" cy="7" rx="3" ry="7" fill="#23292E" transform="rotate(270 20 20)" />
  <!-- Diagonal petals — blush -->
  <ellipse cx="20" cy="7" rx="2.2" ry="6" fill="#DFB3AE" transform="rotate(45 20 20)" />
  <ellipse cx="20" cy="7" rx="2.2" ry="6" fill="#DFB3AE" transform="rotate(135 20 20)" />
  <ellipse cx="20" cy="7" rx="2.2" ry="6" fill="#DFB3AE" transform="rotate(225 20 20)" />
  <ellipse cx="20" cy="7" rx="2.2" ry="6" fill="#DFB3AE" transform="rotate(315 20 20)" />
  <!-- Gold center ring -->
  <circle cx="20" cy="20" r="6" fill="#E4BC62" />
  <!-- White inner dot -->
  <circle cx="20" cy="20" r="3" fill="#ffffff" />
  <!-- Charcoal center dot -->
  <circle cx="20" cy="20" r="1.5" fill="#23292E" />
</svg>
